# xmcd CD database file
#
# Track frame offsets:
#	150
#	13376
#	26848
#	40679
#	54073
#	66896
#	80659
#	94642
#	107999
#	122958
#	134052
#	146739
#	158966
#	171926
#	185678
#	199630
#	212604
#	226138
#	239273
#	251217
#	262582
#	275528
#	290336
#	302823
#	314477
#
# Disc length: 4394 seconds
#
# Revision: 0
# Processed by: cddbd v1.5.2PL0 Copyright (c) Steve Scherf et al.
# Submitted via: CDex 1.70beta2
#
DISCID=74112819
DTITLE=Various Artist - That Devilin' Tune (A Jazz History) Volume 1 [CD9)
DYEAR=2006
DGENRE=Jazz
TTITLE0=Jelly Roll Morton - Sweetheart O' Mine
TTITLE1=Dixieland Jug Blowers - Southern Shout
TTITLE2=King Oliver - Deep Henderson
TTITLE3=Francis Carter - The Birth Of The Blues
TTITLE4=Bennie Moten - Kansas City Shuffle
TTITLE5=Sammie Lewis - East Arkansas Shout
TTITLE6=Kid Ory and Johhny Dodds - Gatemouth
TTITLE7=Kid Ory and Johhny Dodds - Too Tight Blues
TTITLE8=Ben Pollack - He's The Last Word
TTITLE9=Redheads - Get With
TTITLE10=Coon-Sanders Orchestra - High Fever
TTITLE11=Brad Gowans - I'll Fly To Hawaii
TTITLE12=Chippie Hill - Trouble In Mind
TTITLE13=Ada Brown - Panama City Ltd
TTITLE14=Elgar's Creole Orchestra - Brotherly Love
TTITLE15=Phil Napoleon - Go Joe Go
TTITLE16=Thomas Morris - Lazy Drag
TTITLE17=Margaret Johnson - Graysom Street Blues
TTITLE18=Fletcher Henderson - Hot Mustard
TTITLE19=Freddie Keppard - Stockyard Strut
TTITLE20=Jimmie Blythe - Old Man Blues
TTITLE21=Suger Underwood - Dew Drop Alley
TTITLE22=Sam Morgan - Steppin' On The Gas
TTITLE23=The Pebbles - Who's You Tellin'
TTITLE24=Louis Armstrong - Hotter Than That
EXTD=YEAR: 2006
EXTT0=
EXTT1=
EXTT2=
EXTT3=
EXTT4=
EXTT5=
EXTT6=
EXTT7=
EXTT8=
EXTT9=
EXTT10=
EXTT11=
EXTT12=
EXTT13=
EXTT14=
EXTT15=
EXTT16=
EXTT17=
EXTT18=
EXTT19=
EXTT20=
EXTT21=
EXTT22=
EXTT23=
EXTT24=
PLAYORDER=
